<?xml version="1.0" encoding="UTF-8"?>
<svg width="14px" height="14px" viewBox="0 0 14 14" version="1.1" xmlns="http://www.w3.org/2000/svg" xmlns:xlink="http://www.w3.org/1999/xlink">
    <title></title>
    <g id="物料匹配" stroke="none" stroke-width="1" fill="none" fill-rule="evenodd">
        <g id="材料表-匹配未完成" transform="translate(-17, -16)" fill="#D1E8FF" fill-rule="nonzero">
            <g id="Group-5" transform="translate(8, 8)">
                <path d="M22.03125,11.6875 C22.3020833,11.6875 22.53125,11.5885417 22.71875,11.390625 C22.90625,11.1927083 23,10.9583333 23,10.6875 L23,10.6875 L23,9 C23,8.70833333 22.9114583,8.46875 22.734375,8.28125 C22.5572917,8.09375 22.3229167,8 22.03125,8 L22.03125,8 L20.3125,8 C20.0208333,8 19.7864583,8.09375 19.609375,8.28125 C19.4322917,8.46875 19.34375,8.70833333 19.34375,9 L19.34375,9 L19.34375,10.6875 C19.34375,10.9583333 19.4375,11.1927083 19.625,11.390625 C19.8125,11.5885417 20.0416667,11.6875 20.3125,11.6875 L20.3125,11.6875 L22.03125,11.6875 Z M11.6875,11.6875 C11.9583333,11.6875 12.1875,11.5885417 12.375,11.390625 C12.5625,11.1927083 12.65625,10.9583333 12.65625,10.6875 L12.65625,10.6875 L12.65625,9 C12.65625,8.70833333 12.5677083,8.46875 12.390625,8.28125 C12.2135417,8.09375 11.9791667,8 11.6875,8 L11.6875,8 L9.96875,8 C9.67708333,8 9.44270833,8.09375 9.265625,8.28125 C9.08854167,8.46875 9,8.70833333 9,9 L9,9 L9,10.6875 C9,10.9583333 9.09375,11.1927083 9.28125,11.390625 C9.46875,11.5885417 9.69791667,11.6875 9.96875,11.6875 L9.96875,11.6875 L11.6875,11.6875 Z M16.84375,11.6875 C17.1145833,11.6875 17.34375,11.5885417 17.53125,11.390625 C17.71875,11.1927083 17.8125,10.9583333 17.8125,10.6875 L17.8125,10.6875 L17.8125,9 C17.8125,8.70833333 17.7239583,8.46875 17.546875,8.28125 C17.3697917,8.09375 17.1354167,8 16.84375,8 L16.84375,8 L15.125,8 C14.8333333,8 14.5989583,8.09375 14.421875,8.28125 C14.2447917,8.46875 14.15625,8.70833333 14.15625,9 L14.15625,9 L14.15625,10.6875 C14.15625,10.9583333 14.25,11.1927083 14.4375,11.390625 C14.625,11.5885417 14.8541667,11.6875 15.125,11.6875 L15.125,11.6875 L16.84375,11.6875 Z M16.84375,16.84375 C17.1145833,16.84375 17.34375,16.7447917 17.53125,16.546875 C17.71875,16.3489583 17.8125,16.1145833 17.8125,15.84375 L17.8125,15.84375 L17.8125,14.15625 C17.8125,13.8645833 17.7239583,13.625 17.546875,13.4375 C17.3697917,13.25 17.1354167,13.15625 16.84375,13.15625 L16.84375,13.15625 L15.125,13.15625 C14.8333333,13.15625 14.5989583,13.25 14.421875,13.4375 C14.2447917,13.625 14.15625,13.8645833 14.15625,14.15625 L14.15625,14.15625 L14.15625,15.84375 C14.15625,16.1145833 14.25,16.3489583 14.4375,16.546875 C14.625,16.7447917 14.8541667,16.84375 15.125,16.84375 L15.125,16.84375 L16.84375,16.84375 Z M22.03125,16.84375 C22.3020833,16.84375 22.53125,16.7447917 22.71875,16.546875 C22.90625,16.3489583 23,16.1145833 23,15.84375 L23,15.84375 L23,14.15625 C23,13.8645833 22.9114583,13.625 22.734375,13.4375 C22.5572917,13.25 22.3229167,13.15625 22.03125,13.15625 L22.03125,13.15625 L20.3125,13.15625 C20.0208333,13.15625 19.7864583,13.25 19.609375,13.4375 C19.4322917,13.625 19.34375,13.8645833 19.34375,14.15625 L19.34375,14.15625 L19.34375,15.84375 C19.34375,16.1145833 19.4375,16.3489583 19.625,16.546875 C19.8125,16.7447917 20.0416667,16.84375 20.3125,16.84375 L20.3125,16.84375 L22.03125,16.84375 Z M11.6875,16.84375 C11.9583333,16.84375 12.1875,16.7447917 12.375,16.546875 C12.5625,16.3489583 12.65625,16.1145833 12.65625,15.84375 L12.65625,15.84375 L12.65625,14.15625 C12.65625,13.8645833 12.5677083,13.625 12.390625,13.4375 C12.2135417,13.25 11.9791667,13.15625 11.6875,13.15625 L11.6875,13.15625 L9.96875,13.15625 C9.67708333,13.15625 9.44270833,13.25 9.265625,13.4375 C9.08854167,13.625 9,13.8645833 9,14.15625 L9,14.15625 L9,15.84375 C9,16.1145833 9.09375,16.3489583 9.28125,16.546875 C9.46875,16.7447917 9.69791667,16.84375 9.96875,16.84375 L9.96875,16.84375 L11.6875,16.84375 Z M22.03125,22 C22.3229167,22 22.5572917,21.90625 22.734375,21.71875 C22.9114583,21.53125 23,21.2916667 23,21 L23,21 L23,19.3125 C23,19.0208333 22.9114583,18.78125 22.734375,18.59375 C22.5572917,18.40625 22.3229167,18.3125 22.03125,18.3125 L22.03125,18.3125 L20.3125,18.3125 C20.0208333,18.3125 19.7864583,18.40625 19.609375,18.59375 C19.4322917,18.78125 19.34375,19.0208333 19.34375,19.3125 L19.34375,19.3125 L19.34375,21 C19.34375,21.2916667 19.4322917,21.53125 19.609375,21.71875 C19.7864583,21.90625 20.0208333,22 20.3125,22 L20.3125,22 L22.03125,22 Z M11.6875,22 C11.9583333,22 12.1875,21.9010417 12.375,21.703125 C12.5625,21.5052083 12.65625,21.2708333 12.65625,21 L12.65625,21 L12.65625,19.3125 C12.65625,19.0208333 12.5677083,18.78125 12.390625,18.59375 C12.2135417,18.40625 11.9791667,18.3125 11.6875,18.3125 L11.6875,18.3125 L9.96875,18.3125 C9.67708333,18.3125 9.44270833,18.40625 9.265625,18.59375 C9.08854167,18.78125 9,19.0208333 9,19.3125 L9,19.3125 L9,21 C9,21.2708333 9.09375,21.5052083 9.28125,21.703125 C9.46875,21.9010417 9.69791667,22 9.96875,22 L9.96875,22 L11.6875,22 Z M16.84375,22 C17.1145833,22 17.34375,21.9010417 17.53125,21.703125 C17.71875,21.5052083 17.8125,21.2708333 17.8125,21 L17.8125,19.3125 C17.8125,19.0208333 17.7239583,18.78125 17.546875,18.59375 C17.3697917,18.40625 17.1354167,18.3125 16.84375,18.3125 L15.125,18.3125 C14.8333333,18.3125 14.5989583,18.40625 14.421875,18.59375 C14.2447917,18.78125 14.15625,19.0208333 14.15625,19.3125 L14.15625,21 C14.15625,21.2708333 14.25,21.5052083 14.4375,21.703125 C14.625,21.9010417 14.8541667,22 15.125,22 L16.84375,22 Z" id=""></path>
            </g>
        </g>
    </g>
</svg>